<svg id="Layer_1" enable-background="new 0 0 512 512" height="512" viewBox="0 0 512 512" width="512" xmlns="http://www.w3.org/2000/svg"><path d="m512.5 255.8c0-49.3-2.5-93.9-9.9-119.7-8.7-30.2-18.2-57.8-44.7-82.2-31.6-29-60.3-38.8-101.9-46.9-30.9-6-66.9-7.3-89.4-7.2-6.7 0-13.4 0-20.1 0-22.5-.1-58.5 1.2-89.4 7.2-41.6 8.1-70.3 17.9-101.9 47-26.5 24.4-36 52-44.7 82.2-7.5 25.8-10 70.4-10 119.6v.1.1c0 49.2 2.5 93.8 9.9 119.6 8.7 30.2 18.2 57.8 44.7 82.2 31.6 29.1 60.3 38.9 101.9 47 36 7 78.8 7.6 99.2 7l.2.2.2-.2c20.5.6 63.3-.1 99.2-7 41.6-8.1 70.3-17.9 101.9-47 26.5-24.4 36-52 44.7-82.2 7.6-25.8 10.1-70.5 10.1-119.8z" fill="#379df1"/><g fill="#fff"><path d="m421.7 388.3-67.1-162.5c-3.4-8.3-13-12.4-21.4-8.9-4 1.6-7.2 4.8-8.9 8.9l-67.1 162.5c-3.5 8.3.4 18 8.8 21.5 8.3 3.5 18-.4 21.5-8.8 0-.1.1-.1.1-.1l13.6-33.1h76.5l13.6 33.1c2.5 6.1 8.5 10.1 15.1 10.1 9.1 0 16.4-7.4 16.4-16.4.1-2.2-.3-4.3-1.1-6.3zm-107-53.3 24.7-59.9 24.7 59.9z"/><path d="m264.8 320.7c5.3-7.3 3.7-17.6-3.7-22.9-.1-.1-11.2-8.3-27.2-25.9 29.6-40 46.3-85.6 53.1-106.9h24.1c9.1 0 16.4-7.3 16.4-16.4s-7.3-16.4-16.4-16.4h-86.5v-14.9c0-9.1-7.3-16.4-16.4-16.4s-16.4 7.3-16.4 16.4v14.9h-86.5c-9.1 0-16.4 7.3-16.4 16.4s7.3 16.4 16.4 16.4h147c-7.1 20-20.2 51.8-40.1 80.8-23.4-31.1-32.1-51.2-32.2-51.3-3.6-8.3-13.3-12.1-21.5-8.6s-12 13-8.7 21.2c.4 1 10.9 25.5 39.4 62.5.7.9 1.3 1.8 2 2.6-29.2 33.1-57.9 53.6-69.9 60.1-8 4.3-10.9 14.3-6.6 22.3s14.3 10.9 22.3 6.6c1.6-.9 36.2-20 75.7-63.8 16.8 18 28.3 26.4 29 26.9 7.5 5.4 17.8 3.8 23.1-3.6z"/></g></svg>