<?xml version="1.0" encoding="UTF-8"?> <svg xmlns="http://www.w3.org/2000/svg" width="83" height="83" viewBox="0 0 83 83" fill="none"> <path fill-rule="evenodd" clip-rule="evenodd" d="M75.9213 41.525C75.9213 39.8156 77.3066 38.4303 79.0159 38.4303C80.7253 38.4303 82.1106 39.8158 82.1106 41.525C82.1106 64.1622 63.6925 82.5803 41.0553 82.5803C18.4171 82.5803 0 64.1622 0 41.525C0 18.8869 18.4171 0.469727 41.0553 0.469727C42.7645 0.469727 44.15 1.85502 44.15 3.56443C44.15 5.27367 42.7645 6.65897 41.0553 6.65897C21.8305 6.65897 6.18925 22.3002 6.18925 41.525C6.18925 60.7509 21.8305 76.3911 41.0553 76.3911C60.2812 76.3911 75.9213 60.7509 75.9213 41.525ZM75.387 11.6899C76.5949 10.4829 78.5548 10.485 79.7627 11.695C80.9697 12.905 80.9676 14.8649 79.7567 16.0717L40.3517 55.3733C39.772 55.951 38.9851 56.2759 38.167 56.2759C38.1453 56.2759 38.1235 56.2759 38.1009 56.2749C37.2591 56.2575 36.4608 55.8974 35.8904 55.2774L20.314 38.3612C19.1566 37.1037 19.2371 35.1459 20.4946 33.9885C21.7531 32.8312 23.7099 32.9127 24.8673 34.1691L38.2619 48.7169L75.387 11.6899Z" fill="#0057FF"></path> </svg> 