<?xml version="1.0" encoding="UTF-8"?> <svg xmlns="http://www.w3.org/2000/svg" width="210" height="210" viewBox="0 0 210 210" fill="none"> <path d="M105 210C162.99 210 210 162.99 210 105C210 47.0101 162.99 0 105 0C47.0101 0 0 47.0101 0 105C0 162.99 47.0101 210 105 210Z" fill="white"></path> <path d="M76.4865 133.513C72.8553 129.882 75.2636 122.259 73.4153 117.791C71.4993 113.161 64.4688 109.434 64.4688 104.5C64.4688 99.5662 71.4994 95.8393 73.4154 91.2086C75.2637 86.7415 72.8553 79.1178 76.4865 75.4865C80.1178 71.8553 87.7414 74.2636 92.2085 72.4153C96.8393 70.4993 100.566 63.4688 105.5 63.4688C110.434 63.4688 114.161 70.4994 118.791 72.4154C123.259 74.2637 130.882 71.8553 134.513 75.4865C138.145 79.1178 135.736 86.7415 137.585 91.2086C139.501 95.8394 146.531 99.5664 146.531 104.5C146.531 109.434 139.501 113.161 137.585 117.791C135.736 122.259 138.145 129.882 134.513 133.513C130.882 137.145 123.259 134.736 118.791 136.585C114.161 138.501 110.434 145.531 105.5 145.531C100.566 145.531 96.8392 138.501 92.2085 136.585C87.7414 134.736 80.1178 137.145 76.4865 133.513Z" stroke="#171717" stroke-width="4" stroke-linecap="round" stroke-linejoin="round"></path> <path d="M122.859 95.0312L99.7134 117.125L88.1406 106.078" stroke="#171717" stroke-width="4" stroke-linecap="round" stroke-linejoin="round"></path> </svg> 